<svg xmlns="http://www.w3.org/2000/svg" viewBox="0 0 36 36"><defs><style>.cls-1{fill:#f05d57;}.cls-2{fill:#171718;}.cls-2,.cls-4{fill-rule:evenodd;}.cls-3,.cls-4{fill:#fff;}</style></defs><title>03 Tinkercademy Primary Logo icon Colour On Light</title><g id="_03_Tinkercademy_Pri_Logo_Icon_Colour_on_White" data-name="03 Tinkercademy Pri Logo Icon Colour on White"><g id="Logo"><g id="Logo-2" data-name="Logo"><g id="Logo-3" data-name="Logo"><circle id="BG" class="cls-1" cx="18" cy="18" r="14"/><path id="face" class="cls-2" d="M13.57,8.72a3.64,3.64,0,0,0-3.41,2.74L8.07,21.05a4.34,4.34,0,0,0,4.44,5.48h11a4.34,4.34,0,0,0,4.44-5.48l-2.09-9.59a3.64,3.64,0,0,0-3.41-2.74Z"/><g id="Specs"><circle id="Lt_Eye" data-name="Lt Eye" class="cls-3" cx="23.33" cy="15.46" r="3.88"/><circle id="Rt_Eye" data-name="Rt Eye" class="cls-3" cx="12.67" cy="15.46" r="3.88"/><path id="Bridge" class="cls-4" d="M21.77,14.88a4.14,4.14,0,0,0-7.06,0h.9a3.36,3.36,0,0,1,5.26,0Z"/></g></g></g></g></g></svg>